<svg width="32" height="31" viewBox="0 0 32 31" fill="none" xmlns="http://www.w3.org/2000/svg">
<path d="M31.2749 3.84277C27.4022 3.84277 21.9311 4.16681 19.1352 6.96123C17.9247 8.17174 17.3202 10.1451 17.4771 12.3786C17.4975 12.6736 17.6937 12.925 17.9756 13.018C18.256 13.1096 18.5641 13.0238 18.7559 12.7986C20.3108 10.9691 22.2435 9.50288 24.5046 8.44059C24.6964 8.34905 24.9231 8.34176 25.1295 8.41444C25.3111 8.47983 25.4535 8.60332 25.5276 8.76177C25.6816 9.0873 25.6322 9.51596 25.1207 9.75716C25.0917 9.77167 25.0655 9.7906 25.0365 9.80368C25.0263 9.80804 25.0147 9.80661 25.006 9.81097C19.4346 12.4296 16.6954 16.9983 15.4514 21.6963C14.5446 15.814 12.6294 12.351 10.8202 10.2251C9.51095 8.52785 8.22341 7.6283 7.47943 7.11974C7.34136 7.02526 6.92435 6.74046 6.7514 6.56752C6.46803 6.28415 6.46803 5.82348 6.7514 5.54011C7.03477 5.25817 7.49687 5.25817 7.81218 5.57206C7.88923 5.64038 8.01272 5.72757 8.16966 5.83219L8.29902 5.91938C9.35108 6.64013 11.31 7.97849 13.0479 10.8601C13.2034 11.1173 13.5042 11.2554 13.7963 11.2001C14.0928 11.1478 14.3252 10.9197 14.3834 10.6247C14.7627 8.68765 14.5927 5.81326 12.8649 4.08547C10.069 1.29248 4.59789 0.968445 0.726671 0.968445C0.32553 0.968377 0 1.29391 0 1.69498C0 5.56763 0.324032 11.0388 3.11846 13.8347C4.28387 15.0001 6.08147 15.5233 7.86736 15.5233C9.32486 15.5233 10.7533 15.1585 11.8476 14.5264C13.3399 17.6187 14.5316 22.2383 14.5316 29.305C14.5316 29.7061 14.8571 30.0316 15.2582 30.0316C15.6592 30.0316 15.9848 29.7061 15.9848 29.305C15.9848 25.3626 16.6605 20.6311 19.173 16.7366C20.18 17.7204 21.9137 18.3438 23.8347 18.4019C23.9306 18.4049 24.0251 18.4063 24.1195 18.4063C26.0711 18.4063 27.796 17.7945 28.8815 16.7075C31.6773 13.9117 31.9999 8.44053 31.9999 4.56781C32.0015 4.16681 31.6774 3.84277 31.2749 3.84277Z" fill="#20B526"/>
</svg>
