<svg width="45" height="32" viewBox="0 0 45 32" fill="none" xmlns="http://www.w3.org/2000/svg">
<rect x="0.5" y="0.5" width="44" height="30.7647" rx="4.79412" fill="#1A1A1A" stroke="#333333"/>
<path fill-rule="evenodd" clip-rule="evenodd" d="M22.7369 22.2742C21.1697 23.5952 19.1369 24.3926 16.9156 24.3926C11.9592 24.3926 7.94116 20.4224 7.94116 15.5249C7.94116 10.6275 11.9592 6.65729 16.9156 6.65729C19.1369 6.65729 21.1698 7.45472 22.7369 8.77567C24.304 7.45473 26.3368 6.65731 28.5581 6.65731C33.5146 6.65731 37.5326 10.6275 37.5326 15.525C37.5326 20.4224 33.5146 24.3926 28.5581 24.3926C26.3368 24.3926 24.304 23.5952 22.7369 22.2742Z" fill="#ED0006"/>
<path fill-rule="evenodd" clip-rule="evenodd" d="M22.7369 22.2742C24.6665 20.6477 25.8901 18.2275 25.8901 15.5249C25.8901 12.8223 24.6665 10.4021 22.7369 8.77565C24.304 7.45471 26.3368 6.65729 28.5581 6.65729C33.5146 6.65729 37.5326 10.6275 37.5326 15.5249C37.5326 20.4224 33.5146 24.3926 28.5581 24.3926C26.3368 24.3926 24.304 23.5952 22.7369 22.2742Z" fill="#F9A000"/>
<path fill-rule="evenodd" clip-rule="evenodd" d="M22.7369 22.2743C24.6665 20.6478 25.8901 18.2276 25.8901 15.525C25.8901 12.8224 24.6665 10.4022 22.7369 8.77576C20.8073 10.4022 19.5838 12.8224 19.5838 15.525C19.5838 18.2276 20.8073 20.6478 22.7369 22.2743Z" fill="#FF5E00"/>
</svg>
