<svg width="45" height="32" viewBox="0 0 45 32" fill="none" xmlns="http://www.w3.org/2000/svg">
<rect x="0.5" y="0.5" width="44" height="30.7647" rx="4.79412" fill="#1A1A1A" stroke="#333333"/>
<path d="M18.5294 30.6765L43.6765 23.0662V26.7059C43.6765 28.8988 41.8988 30.6765 39.7059 30.6765H18.5294Z" fill="#FD6020"/>
<path fill-rule="evenodd" clip-rule="evenodd" d="M38.9034 12.0584C40.2868 12.0584 41.0477 12.6984 41.0477 13.9073C41.1169 14.8317 40.4944 15.6139 39.6643 15.7561L41.532 18.3872H40.0793L38.4883 15.8272H38.35V18.3872H37.174V12.0584H38.9034ZM38.35 14.9739H38.6958C39.4567 14.9739 39.8026 14.6184 39.8026 13.9784C39.8026 13.4095 39.4567 13.054 38.6958 13.054H38.35V14.9739ZM33.0928 18.3872H36.4131V17.3205H34.2687V15.6139H36.3439V14.5473H34.2687V13.1251H36.4131V12.0584H33.0928V18.3872ZM29.6341 16.325L28.0431 12.0584H26.7979L29.3574 18.5294H29.9799L32.5394 12.0584H31.2943L29.6341 16.325ZM15.5918 15.2584C15.5918 17.0361 16.9753 18.5294 18.7046 18.5294C19.258 18.5294 19.7422 18.3872 20.2265 18.1738V16.7517C19.8806 17.1783 19.3964 17.4628 18.843 17.4628C17.7362 17.4628 16.8369 16.6094 16.8369 15.4717V15.3295C16.7678 14.1917 17.667 13.1962 18.7738 13.1251C19.3272 13.1251 19.8806 13.4095 20.2265 13.8362V12.414C19.8114 12.1296 19.258 12.0585 18.7738 12.0585C16.9753 11.9162 15.5918 13.4095 15.5918 15.2584ZM13.4474 14.4762C12.7557 14.1917 12.5481 14.0495 12.5481 13.694C12.6173 13.2673 12.9632 12.9118 13.3782 12.9829C13.7241 12.9829 14.07 13.1962 14.3467 13.4806L14.9692 12.6273C14.485 12.2007 13.8625 11.9162 13.2399 11.9162C12.2715 11.8451 11.4414 12.6273 11.3722 13.6229V13.694C11.3722 14.5473 11.7181 15.045 12.8248 15.4006C13.1015 15.4717 13.3782 15.6139 13.6549 15.7561C13.8625 15.8984 14.0008 16.1117 14.0008 16.3961C14.0008 16.8939 13.5858 17.3205 13.1707 17.3205H13.1015C12.5481 17.3205 12.0639 16.965 11.8564 16.4672L11.0955 17.2494C11.5105 18.0316 12.3406 18.4583 13.1707 18.4583C14.2775 18.5294 15.1768 17.6761 15.2459 16.5383V16.325C15.1768 15.4717 14.8309 15.045 13.4474 14.4762ZM9.43531 18.3872H10.6113V12.0584H9.43531V18.3872ZM3.97058 12.0584H5.69993H6.0458C7.70597 12.1296 9.02028 13.5517 8.9511 15.2584C8.9511 16.1828 8.53606 17.0361 7.84432 17.6761C7.22175 18.1738 6.46084 18.4583 5.69993 18.3872H3.97058V12.0584ZM5.4924 17.3205C6.04579 17.3916 6.66835 17.1783 7.0834 16.8227C7.49844 16.3961 7.70596 15.8272 7.70596 15.1872C7.70596 14.6183 7.49844 14.0495 7.0834 13.6228C6.66835 13.2673 6.04579 13.0539 5.4924 13.1251H5.14653V17.3205H5.4924Z" fill="white"/>
<path fill-rule="evenodd" clip-rule="evenodd" d="M23.7544 11.9117C22.025 11.9117 20.5724 13.3339 20.5724 15.1828C20.5724 16.9605 21.9558 18.4538 23.7544 18.5249C25.5529 18.596 26.9364 17.1027 27.0055 15.2539C26.9364 13.405 25.5529 11.9117 23.7544 11.9117V11.9117Z" fill="#FD6020"/>
</svg>
