<svg width="45" height="32" viewBox="0 0 45 32" fill="none" xmlns="http://www.w3.org/2000/svg">
<rect x="0.5" y="0.5" width="44" height="30.7647" rx="4.79412" fill="#1A1A1A" stroke="#333333"/>
<path fill-rule="evenodd" clip-rule="evenodd" d="M12.5063 11.0424C12.1286 11.5082 11.5242 11.8755 10.9199 11.823C10.8444 11.1933 11.1402 10.5242 11.4865 10.1109C11.8642 9.63206 12.5252 9.29095 13.0603 9.26471C13.1232 9.92069 12.8777 10.5636 12.5063 11.0424ZM13.0539 11.9477C12.5215 11.9157 12.0357 12.1145 11.6433 12.2751C11.3908 12.3784 11.177 12.4659 11.0143 12.4659C10.8317 12.4659 10.6091 12.3737 10.3591 12.2702C10.0315 12.1346 9.65697 11.9796 9.26423 11.987C8.36402 12.0001 7.52676 12.5315 7.06721 13.3777C6.12293 15.0701 6.82169 17.576 7.7345 18.9535C8.18146 19.6357 8.71655 20.3836 9.42161 20.3573C9.73179 20.3451 9.95492 20.2465 10.1858 20.1444C10.4517 20.0268 10.7279 19.9047 11.1591 19.9047C11.5754 19.9047 11.8394 20.0236 12.093 20.1378C12.334 20.2464 12.5655 20.3506 12.9091 20.3442C13.6394 20.3311 14.0989 19.662 14.5459 18.9798C15.0282 18.2476 15.2402 17.533 15.2724 17.4245L15.2761 17.412C15.2754 17.4112 15.2694 17.4083 15.2589 17.4033C15.0977 17.3264 13.8652 16.7385 13.8534 15.162C13.8416 13.8387 14.8309 13.1683 14.9867 13.0627C14.9962 13.0563 15.0026 13.052 15.0054 13.0497C14.3759 12.0788 13.3939 11.9739 13.0539 11.9477ZM18.109 20.272V10.0453H21.7917C23.6929 10.0453 25.0211 11.4097 25.0211 13.4039C25.0211 15.3981 23.6677 16.7757 21.7413 16.7757H19.6325V20.272H18.109ZM19.6323 11.3835H21.3887C22.7107 11.3835 23.4661 12.1182 23.4661 13.4105C23.4661 14.7028 22.7107 15.4441 21.3824 15.4441H19.6323V11.3835ZM30.0511 19.0454C29.6482 19.8457 28.7606 20.3508 27.8037 20.3508C26.3873 20.3508 25.3989 19.4718 25.3989 18.1467C25.3989 16.8348 26.3558 16.0804 28.1248 15.9689L30.0259 15.8508V15.2866C30.0259 14.4536 29.5034 14.0009 28.5717 14.0009C27.8037 14.0009 27.2434 14.4142 27.1301 15.0439H25.7578C25.8018 13.7189 26.9979 12.7546 28.6158 12.7546C30.3595 12.7546 31.4927 13.7057 31.4927 15.1817V20.2721H30.0826V19.0454H30.0511ZM28.2128 19.1372C27.4007 19.1372 26.8845 18.7305 26.8845 18.1073C26.8845 17.4645 27.3818 17.0906 28.3324 17.0315L30.0258 16.92V17.4973C30.0258 18.455 29.2452 19.1372 28.2128 19.1372ZM36.1699 20.6722C35.5593 22.4631 34.8605 23.0535 33.3749 23.0535C33.2616 23.0535 32.8838 23.0403 32.7957 23.0141V21.7874C32.8901 21.8005 33.1231 21.8137 33.2427 21.8137C33.9163 21.8137 34.294 21.5185 34.5269 20.751L34.6654 20.2983L32.0844 12.853H33.677L35.4712 18.8945H35.5026L37.2968 12.853H38.8454L36.1699 20.6722Z" fill="white"/>
</svg>
